<svg xmlns="http://www.w3.org/2000/svg" viewBox="0 0 600 338" width="600" height="338" role="img" aria-hidden="true"><defs><linearGradient id="g" x1="0" y1="0" x2="1" y2="1"><stop offset="0" stop-color="#5b7b9a"/><stop offset="1" stop-color="#1d2d3d"/></linearGradient><clipPath id="c"><rect width="600" height="338"/></clipPath></defs><g clip-path="url(#c)"><rect width="600" height="338" fill="url(#g)"/><line x1="0" y1="0" x2="-70" y2="338" stroke="#fff" stroke-opacity=".07" stroke-width="1"/><line x1="42" y1="0" x2="-28" y2="338" stroke="#fff" stroke-opacity=".07" stroke-width="1"/><line x1="84" y1="0" x2="14" y2="338" stroke="#fff" stroke-opacity=".07" stroke-width="1"/><line x1="126" y1="0" x2="56" y2="338" stroke="#fff" stroke-opacity=".07" stroke-width="1"/><line x1="168" y1="0" x2="98" y2="338" stroke="#fff" stroke-opacity=".07" stroke-width="1"/><line x1="210" y1="0" x2="140" y2="338" stroke="#fff" stroke-opacity=".07" stroke-width="1"/><line x1="252" y1="0" x2="182" y2="338" stroke="#fff" stroke-opacity=".07" stroke-width="1"/><line x1="294" y1="0" x2="224" y2="338" stroke="#fff" stroke-opacity=".07" stroke-width="1"/><line x1="336" y1="0" x2="266" y2="338" stroke="#fff" stroke-opacity=".07" stroke-width="1"/><line x1="378" y1="0" x2="308" y2="338" stroke="#fff" stroke-opacity=".07" stroke-width="1"/><line x1="420" y1="0" x2="350" y2="338" stroke="#fff" stroke-opacity=".07" stroke-width="1"/><line x1="462" y1="0" x2="392" y2="338" stroke="#fff" stroke-opacity=".07" stroke-width="1"/><line x1="504" y1="0" x2="434" y2="338" stroke="#fff" stroke-opacity=".07" stroke-width="1"/><line x1="546" y1="0" x2="476" y2="338" stroke="#fff" stroke-opacity=".07" stroke-width="1"/><line x1="588" y1="0" x2="518" y2="338" stroke="#fff" stroke-opacity=".07" stroke-width="1"/><line x1="630" y1="0" x2="560" y2="338" stroke="#fff" stroke-opacity=".07" stroke-width="1"/><line x1="672" y1="0" x2="602" y2="338" stroke="#fff" stroke-opacity=".07" stroke-width="1"/><line x1="714" y1="0" x2="644" y2="338" stroke="#fff" stroke-opacity=".07" stroke-width="1"/><line x1="756" y1="0" x2="686" y2="338" stroke="#fff" stroke-opacity=".07" stroke-width="1"/><circle cx="258" cy="119" r="109" fill="#fff" opacity="0.14"/><circle cx="244" cy="122" r="147" fill="#fff" opacity="0.15"/><circle cx="516" cy="162" r="152" fill="#fff" opacity="0.13"/><circle cx="494" cy="123" r="71" fill="#fff" opacity="0.10"/></g></svg>