<svg xmlns="http://www.w3.org/2000/svg" viewBox="0 0 600 338" width="600" height="338" role="img" aria-hidden="true"><defs><linearGradient id="bg" x1="0" y1="0" x2=".25" y2="1"><stop offset="0" stop-color="#6b8f3a"/><stop offset="1" stop-color="#25341a"/></linearGradient><clipPath id="cp"><rect width="600" height="338"/></clipPath></defs><g clip-path="url(#cp)"><rect width="600" height="338" fill="url(#bg)"/><circle cx="492" cy="70" r="24" fill="#fff" fill-opacity=".18"/><path d="M0 216 L96 140 L196 216 Z" fill="#fff" fill-opacity=".1"/><path d="M52 144 L23 218 L81 218 Z" fill="#fff" fill-opacity=".28"/><path d="M52 185 L10 272 L94 272 Z" fill="#fff" fill-opacity=".28"/><path d="M104 176 L82 232 L126 232 Z" fill="#fff" fill-opacity=".28"/><path d="M104 207 L72 272 L136 272 Z" fill="#fff" fill-opacity=".28"/><path d="M528 148 L499 220 L557 220 Z" fill="#fff" fill-opacity=".28"/><path d="M528 188 L487 272 L569 272 Z" fill="#fff" fill-opacity=".28"/><path d="M566 176 L544 232 L588 232 Z" fill="#fff" fill-opacity=".28"/><path d="M566 207 L534 272 L598 272 Z" fill="#fff" fill-opacity=".28"/><rect x="206" y="192" width="190" height="80" rx="0" fill="#fff" fill-opacity=".46"/><line x1="206" y1="204" x2="396" y2="204" stroke="#fff" stroke-opacity=".16" stroke-width="2" stroke-linecap="round"/><line x1="206" y1="222" x2="396" y2="222" stroke="#fff" stroke-opacity=".16" stroke-width="2" stroke-linecap="round"/><line x1="206" y1="240" x2="396" y2="240" stroke="#fff" stroke-opacity=".16" stroke-width="2" stroke-linecap="round"/><line x1="206" y1="258" x2="396" y2="258" stroke="#fff" stroke-opacity=".16" stroke-width="2" stroke-linecap="round"/><path d="M190 192 L301 122 L412 192 Z" fill="#fff" fill-opacity=".82"/><rect x="292" y="114" width="16" height="30" rx="2" fill="#fff" fill-opacity=".82"/><rect x="232" y="212" width="30" height="28" rx="2" fill="#fff" fill-opacity=".7"/><path d="M332 272 L332 216 L364 216 L364 272 Z" fill="#fff" fill-opacity=".92"/><path d="M172 156 L145 223 L199 223 Z" fill="#fff" fill-opacity=".46"/><path d="M172 193 L134 272 L210 272 Z" fill="#fff" fill-opacity=".46"/><path d="M430 148 L401 220 L459 220 Z" fill="#fff" fill-opacity=".46"/><path d="M430 188 L389 272 L471 272 Z" fill="#fff" fill-opacity=".46"/><path d="M466 180 L445 233 L487 233 Z" fill="#fff" fill-opacity=".46"/><path d="M466 209 L436 272 L496 272 Z" fill="#fff" fill-opacity=".46"/><circle cx="140" cy="257.0" r="16.5" fill="#fff" fill-opacity=".28"/><circle cx="125.0" cy="263.0" r="12.6" fill="#fff" fill-opacity=".28"/><circle cx="156.5" cy="261.8" r="13.5" fill="#fff" fill-opacity=".28"/><circle cx="414" cy="259.0" r="14.3" fill="#fff" fill-opacity=".28"/><circle cx="401.0" cy="264.2" r="10.92" fill="#fff" fill-opacity=".28"/><circle cx="428.3" cy="263.16" r="11.700000000000001" fill="#fff" fill-opacity=".28"/><rect x="0" y="272" width="600" height="66" rx="0" fill="#fff" fill-opacity=".22"/><rect x="196" y="286" width="92" height="7" rx="3" fill="#fff" fill-opacity=".5"/><line x1="210" y1="293" x2="204" y2="312" stroke="#fff" stroke-opacity=".4" stroke-width="4" stroke-linecap="round"/><line x1="274" y1="293" x2="280" y2="312" stroke="#fff" stroke-opacity=".4" stroke-width="4" stroke-linecap="round"/><rect x="188" y="300" width="108" height="5" rx="2" fill="#fff" fill-opacity=".3"/></g></svg>